inDegrees=yes
name=ik_Shooting_orientations_zug
DataType=double
version=3
OpenSimVersion=4.3-2021-08-27-4bc7ad9
endheader
time	pelvis_tilt	pelvis_list	pelvis_rotation	pelvis_tx	pelvis_ty	pelvis_tz	hip_flexion_r	hip_adduction_r	hip_rotation_r	knee_angle_r	knee_angle_r_beta	ankle_angle_r	subtalar_angle_r	mtp_angle_r	hip_flexion_l	hip_adduction_l	hip_rotation_l	knee_angle_l	knee_angle_l_beta	ankle_angle_l	subtalar_angle_l	mtp_angle_l	lumbar_extension	lumbar_bending	lumbar_rotation	arm_flex_r	arm_add_r	arm_rot_r	elbow_flex_r	pro_sup_r	wrist_flex_r	wrist_dev_r	arm_flex_l	arm_add_l	arm_rot_l	elbow_flex_l	pro_sup_l	wrist_flex_l	wrist_dev_l
5	-0.1126087897867392	-0.854939674278678	147.5615447886564	0	0.9399999999999999	0	4.267203738112588	-2.203631411969179	0	13.24611319656672	0.2311882883719601	-1.351717527433059	0	0	4.267203738112588	-2.203631411969179	0	13.24611319656672	0.2311882883719601	-1.351717527433059	0	0	2.210283643964772	-0.06207879116448832	-3.684892550623815	53.68217416355883	24.86270536295133	-35.37304454604382	0.002335563351282725	17.55956565467236	0	0	0	-0.5142216087652497	0	18.13252000864873	17.55956565467236	0	0
5.01	-0.1168492560056955	-0.8440440738373207	147.5652312284265	0	0.9399999999999999	0	4.288695211183247	-2.214192792729275	0	13.28062095109708	0.231790562305985	-1.357988091790105	0	0	4.288695211183247	-2.214192792729275	0	13.28062095109708	0.231790562305985	-1.357988091790105	0	0	2.189089667835528	-0.05312257721245436	-3.667809301464624	54.54930348804108	24.7806825955321	-35.53048920837112	0.002298171037617688	17.60435980669665	0	0	0	-0.5170463389418789	0	18.18196937720993	17.60435980669665	0	0
5.02	-0.1179215448168755	-0.8503899177511225	147.5737419512124	0	0.9399999999999999	0	4.307063854881015	-2.22321398216341	0	13.31006052200913	0.2323043797487744	-1.363342583331952	0	0	4.307063854881015	-2.22321398216341	0	13.31006052200913	0.2323043797487744	-1.363342583331952	0	0	2.198371803257748	-0.05019525900596201	-3.67678810576244	55.1685200601182	25.13937720843759	-35.64437582527438	0.002273982662881909	17.64254846423469	0	0	0	-0.5194635653522675	0	18.22414094669852	17.64254846423469	0	0
5.03	-0.1325848041647801	-0.8679998851156452	147.5521747544697	0	0.9399999999999999	0	4.31845768610443	-2.22880602789054	0	13.32829410812992	0.2326226158610283	-1.366660716304659	0	0	4.31845768610443	-2.22880602789054	0	13.32829410812992	0.2326226158610283	-1.366660716304659	0	0	2.188246317381272	-0.0732007486588367	-3.632960468947202	55.07903128634523	25.49226438146207	-35.28532496834647	0.002276596404695961	17.66618069241432	0	0	0	-0.5209648192849127	0	18.25024696481685	17.66618069241432	0	0
5.04	-0.1161855083248901	-0.8719054193019928	147.5682341202422	0	0.9399999999999999	0	4.327561813174081	-2.233239580253518	0	13.34281022636614	0.232875969918859	-1.369284881363813	0	0	4.327561813174081	-2.233239580253518	0	13.34281022636614	0.232875969918859	-1.369284881363813	0	0	2.226494942221476	-0.04789472072030611	-3.667766083871232	55.43435656034213	25.66090237027762	-35.15753992726997	0.002260136032405709	17.68477687590121	0	0	0	-0.5221858596725371	0	18.27084513950538	17.68477687590121	0	0
5.05	-0.1136357440170517	-0.881706172356304	147.5812110687524	0	0.9399999999999999	0	4.337280483371803	-2.237972386008556	0	13.35829451510469	0.2331462217396763	-1.372086124505464	0	0	4.337280483371803	-2.237972386008556	0	13.35829451510469	0.2331462217396763	-1.372086124505464	0	0	2.235894067091106	-0.06081925302618439	-3.669112625954233	55.57093521643368	25.62328858915457	-35.03653090720786	0.002253268211085384	17.70461912566643	0	0	0	-0.5234896893424463	0	18.29282305494178	17.70461912566643	0	0
5.06	-0.1032635186487358	-0.8726208624393449	147.5757557000849	0	0.9399999999999999	0	4.349145817069095	-2.243795577777606	0	13.37723334693191	0.2334767667115427	-1.375540664537877	0	0	4.349145817069095	-2.243795577777606	0	13.37723334693191	0.2334767667115427	-1.375540664537877	0	0	2.235235379226912	-0.04547738832456428	-3.641041914874267	55.44436808461136	25.93763185993443	-35.36928414343809	0.002264004626793241	17.72917096009376	0	0	0	-0.525052335850129	0	18.31995240138955	17.72917096009376	0	0
